<?xml version="1.0" encoding="UTF-8" standalone="no"?>
<!-- Created with Inkscape (http://www.inkscape.org/) -->

<svg
   xmlns:dc="http://purl.org/dc/elements/1.1/"
   xmlns:cc="http://creativecommons.org/ns#"
   xmlns:rdf="http://www.w3.org/1999/02/22-rdf-syntax-ns#"
   xmlns:svg="http://www.w3.org/2000/svg"
   xmlns="http://www.w3.org/2000/svg"
   xmlns:sodipodi="http://sodipodi.sourceforge.net/DTD/sodipodi-0.dtd"
   xmlns:inkscape="http://www.inkscape.org/namespaces/inkscape"
   width="210mm"
   height="297mm"
   viewBox="0 0 210 297"
   version="1.1"
   id="svg8"
   inkscape:version="0.92.1 r15371"
   sodipodi:docname="logo.svg">
  <defs
     id="defs2" />
  <sodipodi:namedview
     id="base"
     pagecolor="#ffffff"
     bordercolor="#666666"
     borderopacity="1.0"
     inkscape:pageopacity="0.0"
     inkscape:pageshadow="2"
     inkscape:zoom="0.54"
     inkscape:cx="318.8781"
     inkscape:cy="560"
     inkscape:document-units="mm"
     inkscape:current-layer="layer1"
     showgrid="false"
     inkscape:window-width="1600"
     inkscape:window-height="876"
     inkscape:window-x="0"
     inkscape:window-y="24"
     inkscape:window-maximized="1" />
  <metadata
     id="metadata5">
    <rdf:RDF>
      <cc:Work
         rdf:about="">
        <dc:format>image/svg+xml</dc:format>
        <dc:type
           rdf:resource="http://purl.org/dc/dcmitype/StillImage" />
        <dc:title></dc:title>
      </cc:Work>
    </rdf:RDF>
  </metadata>
  <g
     inkscape:label="Layer 1"
     inkscape:groupmode="layer"
     id="layer1">
    <circle
       style="opacity:1;fill:#1c241c;fill-opacity:1;stroke:#000000;stroke-width:0.26458332;stroke-opacity:1"
       id="path4485"
       cx="99.953697"
       cy="111.79166"
       r="43.607254" />
    <path
       sodipodi:type="spiral"
       style="fill:#00aa00;fill-rule:evenodd;stroke:#000000;stroke-width:0.26458332"
       id="path4487"
       sodipodi:cx="99.953697"
       sodipodi:cy="110.81173"
       sodipodi:expansion="1"
       sodipodi:revolution="4.2855301"
       sodipodi:radius="34.677216"
       sodipodi:argument="-24.870941"
       sodipodi:t0="0.16559"
       d="m 100.00088,105.06972 c 3.75034,-0.8088 7.15064,2.20366 7.71768,5.80581 0.76498,4.85956 -3.14146,9.1443 -7.845287,9.72392 -5.964827,0.735 -11.145362,-4.07926 -11.730151,-9.88477 -0.712016,-7.06855 5.016973,-13.15057 11.924238,-13.736382 8.17157,-0.693038 15.15835,5.954632 15.74262,13.963722 0.67657,9.27419 -6.89224,17.16782 -16.003192,17.74885 -10.376607,0.66175 -19.178477,-7.82984 -19.755091,-18.04267 -0.648095,-11.478881 8.767418,-21.189985 20.082153,-21.761327 12.58106,-0.635285 23.20213,9.704985 23.76756,22.121627 0.62311,13.68319 -10.64255,25.21477 -24.161108,25.7738 -14.785264,0.61141 -27.227781,-11.5801 -27.78003,-26.20059 -0.600099,-15.887308 12.517654,-29.241102 28.240068,-29.786262 16.98933,-0.589088 31.25467,13.455206 31.79249,30.279542 0.57833,18.09134 -14.39275,33.26845 -32.319014,33.79873 -5.471338,0.16185 -10.955563,-1.0145 -15.888221,-3.38461"
       transform="matrix(1.0343611,0,0,1.0400118,-4.5359709,-5.7972473)" />
  </g>
</svg>
